<svg width="13px" height="10px" version="1.1" xmlns="http://www.w3.org/2000/svg">
    <g stroke="none" stroke-width="1" fill="none" fill-rule="evenodd">
        <g transform="translate(-217.000000, -86.000000)" fill="#455A64">
            <path d="M223.306818,93.5 L224.130682,92.6761364 L223.051136,91.5965909 L222.227273,92.4204545 L222.227273,92.8181818 L222.909091,92.8181818 L222.909091,93.5 L223.306818,93.5 Z M226.431818,88.3863636 C226.35606,88.3106057 226.277936,88.3129731 226.197443,88.3934659 L223.711648,90.8792614 C223.631155,90.9597542 223.628787,91.0378784 223.704545,91.1136364 C223.780303,91.1893943 223.858428,91.1870269 223.93892,91.1065341 L226.424716,88.6207386 C226.505209,88.5402458 226.507576,88.4621216 226.431818,88.3863636 L226.431818,88.3863636 Z M227,92.6051136 L227,93.9545455 C227,94.5179952 226.799955,94.9997613 226.399858,95.399858 C225.999761,95.7999547 225.517995,96 224.954545,96 L219.045455,96 C218.482005,96 218.000239,95.7999547 217.600142,95.399858 C217.200045,94.9997613 217,94.5179952 217,93.9545455 L217,88.0454545 C217,87.4820048 217.200045,87.0002387 217.600142,86.600142 C218.000239,86.2000453 218.482005,86 219.045455,86 L224.954545,86 C225.252842,86 225.529828,86.059185 225.785511,86.1775568 C225.856534,86.2107009 225.899148,86.2651511 225.913352,86.3409091 C225.927557,86.4214019 225.90625,86.4900565 225.849432,86.546875 L225.50142,86.8948864 C225.435132,86.9611746 225.359375,86.9801138 225.274148,86.9517045 C225.165246,86.9232953 225.058713,86.9090909 224.954545,86.9090909 L219.045455,86.9090909 C218.732953,86.9090909 218.465437,87.0203587 218.242898,87.2428977 C218.020359,87.4654367 217.909091,87.732953 217.909091,88.0454545 L217.909091,93.9545455 C217.909091,94.267047 218.020359,94.5345633 218.242898,94.7571023 C218.465437,94.9796413 218.732953,95.0909091 219.045455,95.0909091 L224.954545,95.0909091 C225.267047,95.0909091 225.534563,94.9796413 225.757102,94.7571023 C225.979641,94.5345633 226.090909,94.267047 226.090909,93.9545455 L226.090909,93.0596591 C226.090909,92.9981058 226.112216,92.9460229 226.15483,92.9034091 L226.609375,92.4488636 C226.680398,92.3778406 226.763257,92.3612687 226.857955,92.3991477 C226.952652,92.4370267 227,92.5056813 227,92.6051136 L227,92.6051136 Z M226.318182,87.3636364 L228.363636,89.4090909 L223.590909,94.1818182 L221.545455,94.1818182 L221.545455,92.1363636 L226.318182,87.3636364 Z M229.471591,88.3011364 L228.818182,88.9545455 L226.772727,86.9090909 L227.426136,86.2556818 C227.558713,86.1231054 227.719696,86.0568182 227.909091,86.0568182 C228.098486,86.0568182 228.259469,86.1231054 228.392045,86.2556818 L229.471591,87.3352273 C229.604167,87.4678037 229.670455,87.6287869 229.670455,87.8181818 C229.670455,88.0075767 229.604167,88.1685599 229.471591,88.3011364 L229.471591,88.3011364 Z"></path>
        </g>
    </g>
</svg>
