<svg width="18px" height="14px" version="1.1" xmlns="http://www.w3.org/2000/svg">
    <g stroke="none" stroke-width="1" fill="none" fill-rule="evenodd">
        <g transform="translate(-361.000000, -138.000000)" fill="#455A64">
            <path d="M369.829545,148.5 L370.982955,147.346591 L369.471591,145.835227 L368.318182,146.988636 L368.318182,147.545455 L369.272727,147.545455 L369.272727,148.5 L369.829545,148.5 Z M374.204545,141.340909 C374.098484,141.234848 373.98911,141.238162 373.87642,141.350852 L370.396307,144.830966 C370.283617,144.943656 370.280303,145.05303 370.386364,145.159091 C370.492425,145.265152 370.601799,145.261838 370.714489,145.149148 L374.194602,141.669034 C374.307292,141.556344 374.310607,141.44697 374.204545,141.340909 L374.204545,141.340909 Z M375,147.247159 L375,149.136364 C375,149.925193 374.719937,150.599666 374.159801,151.159801 C373.599666,151.719937 372.925193,152 372.136364,152 L363.863636,152 C363.074807,152 362.400334,151.719937 361.840199,151.159801 C361.280063,150.599666 361,149.925193 361,149.136364 L361,140.863636 C361,140.074807 361.280063,139.400334 361.840199,138.840199 C362.400334,138.280063 363.074807,138 363.863636,138 L372.136364,138 C372.553979,138 372.94176,138.082859 373.299716,138.24858 C373.399148,138.294981 373.458807,138.371212 373.478693,138.477273 C373.49858,138.589963 373.46875,138.686079 373.389205,138.765625 L372.901989,139.252841 C372.809185,139.345644 372.703126,139.372159 372.583807,139.332386 C372.431344,139.292613 372.282198,139.272727 372.136364,139.272727 L363.863636,139.272727 C363.426134,139.272727 363.051611,139.428502 362.740057,139.740057 C362.428502,140.051611 362.272727,140.426134 362.272727,140.863636 L362.272727,149.136364 C362.272727,149.573866 362.428502,149.948389 362.740057,150.259943 C363.051611,150.571498 363.426134,150.727273 363.863636,150.727273 L372.136364,150.727273 C372.573866,150.727273 372.948389,150.571498 373.259943,150.259943 C373.571498,149.948389 373.727273,149.573866 373.727273,149.136364 L373.727273,147.883523 C373.727273,147.797348 373.757102,147.724432 373.816761,147.664773 L374.453125,147.028409 C374.552557,146.928977 374.66856,146.905776 374.801136,146.958807 C374.933713,147.011837 375,147.107954 375,147.247159 L375,147.247159 Z M374.045455,139.909091 L376.909091,142.772727 L370.227273,149.454545 L367.363636,149.454545 L367.363636,146.590909 L374.045455,139.909091 Z M378.460227,141.221591 L377.545455,142.136364 L374.681818,139.272727 L375.596591,138.357955 C375.782198,138.172348 376.007574,138.079545 376.272727,138.079545 C376.53788,138.079545 376.763257,138.172348 376.948864,138.357955 L378.460227,139.869318 C378.645834,140.054925 378.738636,140.280302 378.738636,140.545455 C378.738636,140.810607 378.645834,141.035984 378.460227,141.221591 L378.460227,141.221591 Z"></path>
        </g>
    </g>
</svg>
