<svg width="10px" height="12px" version="1.1" xmlns="http://www.w3.org/2000/svg">
    <g stroke="none" stroke-width="1" fill="none" fill-rule="evenodd">
        <g transform="translate(-133.000000, -86.000000)" fill="#455A64">
            <path d="M142.557292,88.4739583 C142.67882,88.5954867 142.782986,88.7604156 142.869792,88.96875 C142.956598,89.1770844 143,89.3680547 143,89.5416667 L143,97.0416667 C143,97.2152786 142.939237,97.3628466 142.817708,97.484375 C142.69618,97.6059034 142.548612,97.6666667 142.375,97.6666667 L133.625,97.6666667 C133.451388,97.6666667 133.30382,97.6059034 133.182292,97.484375 C133.060763,97.3628466 133,97.2152786 133,97.0416667 L133,86.625 C133,86.451388 133.060763,86.3038201 133.182292,86.1822917 C133.30382,86.0607633 133.451388,86 133.625,86 L139.458333,86 C139.631945,86 139.822916,86.0434023 140.03125,86.1302083 C140.239584,86.2170143 140.404513,86.3211799 140.526042,86.4427083 L142.557292,88.4739583 Z M139.666667,86.8854167 L139.666667,89.3333333 L142.114583,89.3333333 C142.07118,89.2074646 142.023438,89.1184898 141.971354,89.0664062 L139.933594,87.0286458 C139.88151,86.9765622 139.792535,86.9288197 139.666667,86.8854167 L139.666667,86.8854167 Z M142.166667,96.8333333 L142.166667,90.1666667 L139.458333,90.1666667 C139.284721,90.1666667 139.137153,90.1059034 139.015625,89.984375 C138.894097,89.8628466 138.833333,89.7152786 138.833333,89.5416667 L138.833333,86.8333333 L133.833333,86.8333333 L133.833333,96.8333333 L142.166667,96.8333333 Z M138.820312,92.9726562 C138.963542,93.085504 139.145832,93.2070306 139.367188,93.3372396 C139.623265,93.3068575 139.877169,93.2916667 140.128906,93.2916667 C140.76693,93.2916667 141.151041,93.3980024 141.28125,93.6106771 C141.350695,93.7061637 141.355035,93.8190098 141.294271,93.9492188 C141.294271,93.953559 141.292101,93.9578993 141.28776,93.9622396 C141.28342,93.9665799 141.27908,93.9709201 141.27474,93.9752604 L141.27474,93.9817708 C141.248698,94.1467022 141.094619,94.2291667 140.8125,94.2291667 C140.604166,94.2291667 140.354602,94.1857643 140.063802,94.0989583 C139.773002,94.0121523 139.490887,93.8971361 139.217448,93.7539062 C138.258242,93.8580734 137.407556,94.0381932 136.665365,94.2942708 C136.001299,95.4314293 135.47613,96 135.089844,96 C135.024739,96 134.963976,95.9848092 134.907552,95.9544271 L134.751302,95.8763021 C134.746962,95.8719618 134.733941,95.8611112 134.71224,95.84375 C134.668837,95.800347 134.655816,95.7222228 134.673177,95.609375 C134.71224,95.435763 134.833766,95.2371973 135.03776,95.0136719 C135.241754,94.7901465 135.52821,94.5807301 135.897135,94.3854167 C135.9579,94.346354 136.007812,94.3593747 136.046875,94.4244792 C136.055556,94.4331598 136.059896,94.4418402 136.059896,94.4505208 C136.285591,94.0815954 136.517794,93.6540823 136.75651,93.1679688 C137.051651,92.577688 137.277343,92.0091173 137.433594,91.4622396 C137.329427,91.106335 137.263238,90.7602013 137.235026,90.4238281 C137.206814,90.0874549 137.22092,89.810765 137.277344,89.59375 C137.325087,89.420138 137.416232,89.3333333 137.550781,89.3333333 L137.6875,89.3333333 L137.69401,89.3333333 C137.793837,89.3333333 137.869791,89.3658851 137.921875,89.4309896 C138,89.5221359 138.019531,89.6697038 137.980469,89.8736979 C137.971788,89.8997397 137.963108,89.9171007 137.954427,89.9257812 C137.958767,89.9388021 137.960938,89.9561631 137.960938,89.9778646 L137.960938,90.1731771 C137.952257,90.7070339 137.921875,91.1236964 137.869792,91.4231771 C138.108508,92.1349862 138.425345,92.6514741 138.820312,92.9726562 L138.820312,92.9726562 Z M135.070312,95.6484375 C135.296008,95.5442703 135.593314,95.2013918 135.96224,94.6197917 C135.740884,94.7934036 135.550999,94.9756935 135.392578,95.1666667 C135.234157,95.3576398 135.126736,95.5182285 135.070312,95.6484375 L135.070312,95.6484375 Z M137.661458,89.6588542 C137.596354,89.8411467 137.592014,90.1276022 137.648438,90.5182292 C137.652778,90.4878471 137.667969,90.3923619 137.69401,90.2317708 C137.69401,90.2187499 137.709201,90.1254349 137.739583,89.9518229 C137.743924,89.9344617 137.752604,89.9171008 137.765625,89.8997396 C137.761285,89.8953993 137.759115,89.891059 137.759115,89.8867188 C137.759115,89.8823785 137.75803,89.8791233 137.755859,89.8769531 C137.753689,89.874783 137.752604,89.8715278 137.752604,89.8671875 C137.748264,89.7717009 137.720052,89.6935767 137.667969,89.6328125 C137.667969,89.6371528 137.665799,89.641493 137.661458,89.6458333 L137.661458,89.6588542 Z M136.854167,93.9622396 C137.440107,93.7278634 138.05642,93.5520839 138.703125,93.4348958 C138.694444,93.4305555 138.666233,93.4099394 138.61849,93.3730469 C138.570746,93.3361543 138.536024,93.3068577 138.514323,93.2851562 C138.18446,92.9943562 137.908855,92.6124156 137.6875,92.1393229 C137.570312,92.5125887 137.390192,92.9401018 137.147135,93.421875 C137.016926,93.6649318 136.919271,93.8450515 136.854167,93.9622396 L136.854167,93.9622396 Z M141.059896,93.8580729 C140.955729,93.7539057 140.651912,93.7018229 140.148438,93.7018229 C140.4783,93.8233513 140.747395,93.8841146 140.955729,93.8841146 C141.016493,93.8841146 141.055555,93.8819445 141.072917,93.8776042 C141.072917,93.8732639 141.068576,93.8667535 141.059896,93.8580729 L141.059896,93.8580729 Z"></path>
        </g>
    </g>
</svg>
