<svg width="10px" height="9px" version="1.1" xmlns="http://www.w3.org/2000/svg">
    <g stroke="none" stroke-width="1" fill="none" fill-rule="evenodd">
        <g transform="translate(-88.000000, -87.000000)" fill="#455A64">
            <path d="M98,94.0833333 L98,94.9166667 C98,95.0295145 97.9587678,95.1271697 97.8763021,95.2096354 C97.7938364,95.2921011 97.6961811,95.3333333 97.5833333,95.3333333 L88.4166667,95.3333333 C88.3038189,95.3333333 88.2061636,95.2921011 88.1236979,95.2096354 C88.0412322,95.1271697 88,95.0295145 88,94.9166667 L88,94.0833333 C88,93.9704855 88.0412322,93.8728303 88.1236979,93.7903646 C88.2061636,93.7078989 88.3038189,93.6666667 88.4166667,93.6666667 L97.5833333,93.6666667 C97.6961811,93.6666667 97.7938364,93.7078989 97.8763021,93.7903646 C97.9587678,93.8728303 98,93.9704855 98,94.0833333 L98,94.0833333 Z M98,90.75 L98,91.5833333 C98,91.6961811 97.9587678,91.7938364 97.8763021,91.8763021 C97.7938364,91.9587678 97.6961811,92 97.5833333,92 L88.4166667,92 C88.3038189,92 88.2061636,91.9587678 88.1236979,91.8763021 C88.0412322,91.7938364 88,91.6961811 88,91.5833333 L88,90.75 C88,90.6371522 88.0412322,90.5394969 88.1236979,90.4570312 C88.2061636,90.3745656 88.3038189,90.3333333 88.4166667,90.3333333 L97.5833333,90.3333333 C97.6961811,90.3333333 97.7938364,90.3745656 97.8763021,90.4570312 C97.9587678,90.5394969 98,90.6371522 98,90.75 L98,90.75 Z M98,87.4166667 L98,88.25 C98,88.3628478 97.9587678,88.4605031 97.8763021,88.5429688 C97.7938364,88.6254344 97.6961811,88.6666667 97.5833333,88.6666667 L88.4166667,88.6666667 C88.3038189,88.6666667 88.2061636,88.6254344 88.1236979,88.5429688 C88.0412322,88.4605031 88,88.3628478 88,88.25 L88,87.4166667 C88,87.3038189 88.0412322,87.2061636 88.1236979,87.1236979 C88.2061636,87.0412322 88.3038189,87 88.4166667,87 L97.5833333,87 C97.6961811,87 97.7938364,87.0412322 97.8763021,87.1236979 C97.9587678,87.2061636 98,87.3038189 98,87.4166667 L98,87.4166667 Z"></path>
        </g>
    </g>
</svg>
