<svg width="10px" height="11px" version="1.1" xmlns="http://www.w3.org/2000/svg">
    <g stroke="none" stroke-width="1" fill="none" fill-rule="evenodd">
        <g transform="translate(-174.000000, -86.000000)" fill="#455A64">
            <path d="M177.636364,90.3181818 L177.636364,94.4090909 C177.636364,94.4753791 177.615057,94.5298293 177.572443,94.5724432 C177.529829,94.615057 177.475379,94.6363636 177.409091,94.6363636 L176.954545,94.6363636 C176.888257,94.6363636 176.833807,94.615057 176.791193,94.5724432 C176.748579,94.5298293 176.727273,94.4753791 176.727273,94.4090909 L176.727273,90.3181818 C176.727273,90.2518936 176.748579,90.1974434 176.791193,90.1548295 C176.833807,90.1122157 176.888257,90.0909091 176.954545,90.0909091 L177.409091,90.0909091 C177.475379,90.0909091 177.529829,90.1122157 177.572443,90.1548295 C177.615057,90.1974434 177.636364,90.2518936 177.636364,90.3181818 L177.636364,90.3181818 Z M179.454545,90.3181818 L179.454545,94.4090909 C179.454545,94.4753791 179.433239,94.5298293 179.390625,94.5724432 C179.348011,94.615057 179.293561,94.6363636 179.227273,94.6363636 L178.772727,94.6363636 C178.706439,94.6363636 178.651989,94.615057 178.609375,94.5724432 C178.566761,94.5298293 178.545455,94.4753791 178.545455,94.4090909 L178.545455,90.3181818 C178.545455,90.2518936 178.566761,90.1974434 178.609375,90.1548295 C178.651989,90.1122157 178.706439,90.0909091 178.772727,90.0909091 L179.227273,90.0909091 C179.293561,90.0909091 179.348011,90.1122157 179.390625,90.1548295 C179.433239,90.1974434 179.454545,90.2518936 179.454545,90.3181818 L179.454545,90.3181818 Z M181.272727,90.3181818 L181.272727,94.4090909 C181.272727,94.4753791 181.251421,94.5298293 181.208807,94.5724432 C181.166193,94.615057 181.111743,94.6363636 181.045455,94.6363636 L180.590909,94.6363636 C180.524621,94.6363636 180.470171,94.615057 180.427557,94.5724432 C180.384943,94.5298293 180.363636,94.4753791 180.363636,94.4090909 L180.363636,90.3181818 C180.363636,90.2518936 180.384943,90.1974434 180.427557,90.1548295 C180.470171,90.1122157 180.524621,90.0909091 180.590909,90.0909091 L181.045455,90.0909091 C181.111743,90.0909091 181.166193,90.1122157 181.208807,90.1548295 C181.251421,90.1974434 181.272727,90.2518936 181.272727,90.3181818 L181.272727,90.3181818 Z M182.181818,95.4602273 L182.181818,88.7272727 L175.818182,88.7272727 L175.818182,95.4602273 C175.818182,95.5643945 175.834754,95.6602742 175.867898,95.7478693 C175.901042,95.8354645 175.935369,95.8993843 175.970881,95.9396307 C176.006392,95.9798771 176.03125,96 176.045455,96 L181.954545,96 C181.96875,96 181.993608,95.9798771 182.029119,95.9396307 C182.064631,95.8993843 182.098958,95.8354645 182.132102,95.7478693 C182.165246,95.6602742 182.181818,95.5643945 182.181818,95.4602273 L182.181818,95.4602273 Z M177.409091,87.8181818 L180.590909,87.8181818 L180.25,86.9872159 C180.216856,86.9446021 180.17661,86.9185607 180.129261,86.9090909 L177.877841,86.9090909 C177.830492,86.9185607 177.790246,86.9446021 177.757102,86.9872159 L177.409091,87.8181818 Z M184,88.0454545 L184,88.5 C184,88.5662882 183.978693,88.6207384 183.93608,88.6633523 C183.893466,88.7059661 183.839015,88.7272727 183.772727,88.7272727 L183.090909,88.7272727 L183.090909,95.4602273 C183.090909,95.8532217 182.979641,96.1929436 182.757102,96.4794034 C182.534563,96.7658632 182.267047,96.9090909 181.954545,96.9090909 L176.045455,96.9090909 C175.732953,96.9090909 175.465437,96.770598 175.242898,96.493608 C175.020359,96.2166179 174.909091,95.8816308 174.909091,95.4886364 L174.909091,88.7272727 L174.227273,88.7272727 C174.160985,88.7272727 174.106534,88.7059661 174.06392,88.6633523 C174.021307,88.6207384 174,88.5662882 174,88.5 L174,88.0454545 C174,87.9791663 174.021307,87.9247161 174.06392,87.8821023 C174.106534,87.8394884 174.160985,87.8181818 174.227273,87.8181818 L176.421875,87.8181818 L176.919034,86.6321023 C176.990057,86.456912 177.117897,86.3077658 177.302557,86.1846591 C177.487217,86.0615524 177.674241,86 177.863636,86 L180.136364,86 C180.325759,86 180.512783,86.0615524 180.697443,86.1846591 C180.882103,86.3077658 181.009943,86.456912 181.080966,86.6321023 L181.578125,87.8181818 L183.772727,87.8181818 C183.839015,87.8181818 183.893466,87.8394884 183.93608,87.8821023 C183.978693,87.9247161 184,87.9791663 184,88.0454545 L184,88.0454545 Z"></path>
        </g>
    </g>
</svg>
