<svg width="14px" height="16px" version="1.1" xmlns="http://www.w3.org/2000/svg">
    <g stroke="none" stroke-width="1" fill="none" fill-rule="evenodd">
        <g transform="translate(-337.000000, -137.000000)" fill="#455A64">
            <path d="M342.090909,143.045455 L342.090909,148.772727 C342.090909,148.865531 342.06108,148.941761 342.00142,149.00142 C341.941761,149.06108 341.865531,149.090909 341.772727,149.090909 L341.136364,149.090909 C341.04356,149.090909 340.96733,149.06108 340.90767,149.00142 C340.848011,148.941761 340.818182,148.865531 340.818182,148.772727 L340.818182,143.045455 C340.818182,142.952651 340.848011,142.876421 340.90767,142.816761 C340.96733,142.757102 341.04356,142.727273 341.136364,142.727273 L341.772727,142.727273 C341.865531,142.727273 341.941761,142.757102 342.00142,142.816761 C342.06108,142.876421 342.090909,142.952651 342.090909,143.045455 L342.090909,143.045455 Z M344.636364,143.045455 L344.636364,148.772727 C344.636364,148.865531 344.606534,148.941761 344.546875,149.00142 C344.487216,149.06108 344.410985,149.090909 344.318182,149.090909 L343.681818,149.090909 C343.589015,149.090909 343.512784,149.06108 343.453125,149.00142 C343.393466,148.941761 343.363636,148.865531 343.363636,148.772727 L343.363636,143.045455 C343.363636,142.952651 343.393466,142.876421 343.453125,142.816761 C343.512784,142.757102 343.589015,142.727273 343.681818,142.727273 L344.318182,142.727273 C344.410985,142.727273 344.487216,142.757102 344.546875,142.816761 C344.606534,142.876421 344.636364,142.952651 344.636364,143.045455 L344.636364,143.045455 Z M347.181818,143.045455 L347.181818,148.772727 C347.181818,148.865531 347.151989,148.941761 347.09233,149.00142 C347.03267,149.06108 346.95644,149.090909 346.863636,149.090909 L346.227273,149.090909 C346.134469,149.090909 346.058239,149.06108 345.99858,149.00142 C345.93892,148.941761 345.909091,148.865531 345.909091,148.772727 L345.909091,143.045455 C345.909091,142.952651 345.93892,142.876421 345.99858,142.816761 C346.058239,142.757102 346.134469,142.727273 346.227273,142.727273 L346.863636,142.727273 C346.95644,142.727273 347.03267,142.757102 347.09233,142.816761 C347.151989,142.876421 347.181818,142.952651 347.181818,143.045455 L347.181818,143.045455 Z M348.454545,150.244318 L348.454545,140.818182 L339.545455,140.818182 L339.545455,150.244318 C339.545455,150.390152 339.568655,150.524384 339.615057,150.647017 C339.661459,150.76965 339.709517,150.859138 339.759233,150.915483 C339.808949,150.971828 339.84375,151 339.863636,151 L348.136364,151 C348.15625,151 348.191051,150.971828 348.240767,150.915483 C348.290483,150.859138 348.338541,150.76965 348.384943,150.647017 C348.431345,150.524384 348.454545,150.390152 348.454545,150.244318 L348.454545,150.244318 Z M341.772727,139.545455 L346.227273,139.545455 L345.75,138.382102 C345.703598,138.322443 345.647254,138.285985 345.580966,138.272727 L342.428977,138.272727 C342.362689,138.285985 342.306345,138.322443 342.259943,138.382102 L341.772727,139.545455 Z M351,139.863636 L351,140.5 C351,140.592803 350.970171,140.669034 350.910511,140.728693 C350.850852,140.788353 350.774622,140.818182 350.681818,140.818182 L349.727273,140.818182 L349.727273,150.244318 C349.727273,150.79451 349.571498,151.270121 349.259943,151.671165 C348.948389,152.072208 348.573866,152.272727 348.136364,152.272727 L339.863636,152.272727 C339.426134,152.272727 339.051611,152.078837 338.740057,151.691051 C338.428502,151.303265 338.272727,150.834283 338.272727,150.284091 L338.272727,140.818182 L337.318182,140.818182 C337.225378,140.818182 337.149148,140.788353 337.089489,140.728693 C337.029829,140.669034 337,140.592803 337,140.5 L337,139.863636 C337,139.770833 337.029829,139.694603 337.089489,139.634943 C337.149148,139.575284 337.225378,139.545455 337.318182,139.545455 L340.390625,139.545455 L341.086648,137.884943 C341.18608,137.639677 341.365056,137.430872 341.62358,137.258523 C341.882104,137.086173 342.143938,137 342.409091,137 L345.590909,137 C345.856062,137 346.117896,137.086173 346.37642,137.258523 C346.634944,137.430872 346.81392,137.639677 346.913352,137.884943 L347.609375,139.545455 L350.681818,139.545455 C350.774622,139.545455 350.850852,139.575284 350.910511,139.634943 C350.970171,139.694603 351,139.770833 351,139.863636 L351,139.863636 Z"></path>
        </g>
    </g>
</svg>
