<svg width="12px" height="10px" version="1.1" xmlns="http://www.w3.org/2000/svg">
    <g stroke="none" stroke-width="1" fill="none" fill-rule="evenodd">
        <g transform="translate(-153.000000, -86.000000)" fill="#455A64">
            <path d="M162.166667,92.0416667 L162.166667,94.125 C162.166667,94.6414956 161.983292,95.0831145 161.616536,95.4498698 C161.249781,95.8166251 160.808162,96 160.291667,96 L154.875,96 C154.358504,96 153.916886,95.8166251 153.55013,95.4498698 C153.183375,95.0831145 153,94.6414956 153,94.125 L153,88.7083333 C153,88.1918377 153.183375,87.7502188 153.55013,87.3834635 C153.916886,87.0167082 154.358504,86.8333333 154.875,86.8333333 L159.458333,86.8333333 C159.519098,86.8333333 159.56901,86.8528644 159.608073,86.8919271 C159.647136,86.9309898 159.666667,86.9809025 159.666667,87.0416667 L159.666667,87.4583333 C159.666667,87.5190975 159.647136,87.5690102 159.608073,87.6080729 C159.56901,87.6471356 159.519098,87.6666667 159.458333,87.6666667 L154.875,87.6666667 C154.58854,87.6666667 154.343317,87.7686622 154.139323,87.9726562 C153.935329,88.1766503 153.833333,88.4218736 153.833333,88.7083333 L153.833333,94.125 C153.833333,94.4114598 153.935329,94.656683 154.139323,94.8606771 C154.343317,95.0646712 154.58854,95.1666667 154.875,95.1666667 L160.291667,95.1666667 C160.578126,95.1666667 160.82335,95.0646712 161.027344,94.8606771 C161.231338,94.656683 161.333333,94.4114598 161.333333,94.125 L161.333333,92.0416667 C161.333333,91.9809025 161.352864,91.9309898 161.391927,91.8919271 C161.43099,91.8528644 161.480902,91.8333333 161.541667,91.8333333 L161.958333,91.8333333 C162.019098,91.8333333 162.06901,91.8528644 162.108073,91.8919271 C162.147136,91.9309898 162.166667,91.9809025 162.166667,92.0416667 L162.166667,92.0416667 Z M164.666667,86.4166667 L164.666667,89.75 C164.666667,89.8628478 164.625434,89.9605031 164.542969,90.0429688 C164.460503,90.1254344 164.362848,90.1666667 164.25,90.1666667 C164.137152,90.1666667 164.039497,90.1254344 163.957031,90.0429688 L162.811198,88.8971354 L158.566406,93.1419271 C158.523003,93.1853301 158.473091,93.2070312 158.416667,93.2070312 C158.360243,93.2070312 158.31033,93.1853301 158.266927,93.1419271 L157.52474,92.3997396 C157.481337,92.3563366 157.459635,92.3064239 157.459635,92.25 C157.459635,92.1935761 157.481337,92.1436634 157.52474,92.1002604 L161.769531,87.8554688 L160.623698,86.7096354 C160.541232,86.6271697 160.5,86.5295145 160.5,86.4166667 C160.5,86.3038189 160.541232,86.2061636 160.623698,86.1236979 C160.706164,86.0412322 160.803819,86 160.916667,86 L164.25,86 C164.362848,86 164.460503,86.0412322 164.542969,86.1236979 C164.625434,86.2061636 164.666667,86.3038189 164.666667,86.4166667 L164.666667,86.4166667 Z"></path>
        </g>
    </g>
</svg>
