<svg width="13px" height="10px" version="1.1" xmlns="http://www.w3.org/2000/svg">
    <g stroke="none" stroke-width="1" fill="none" fill-rule="evenodd">
        <g transform="translate(-194.000000, -86.000000)" fill="#455A64">
            <path d="M199,95.25 C199,95.2708334 199.002604,95.3229163 199.007812,95.40625 C199.013021,95.4895837 199.014323,95.5585935 199.011719,95.6132812 C199.009115,95.667969 199.001302,95.7291663 198.988281,95.796875 C198.97526,95.8645837 198.949219,95.9153644 198.910156,95.9492188 C198.871094,95.9830731 198.817709,96 198.75,96 L196.25,96 C195.630205,96 195.100263,95.7799501 194.660156,95.3398438 C194.22005,94.8997374 194,94.3697948 194,93.75 L194,88.25 C194,87.6302052 194.22005,87.1002626 194.660156,86.6601562 C195.100263,86.2200499 195.630205,86 196.25,86 L198.75,86 C198.817709,86 198.876302,86.0247393 198.925781,86.0742188 C198.975261,86.1236982 199,86.1822913 199,86.25 C199,86.2708334 199.002604,86.3229163 199.007812,86.40625 C199.013021,86.4895837 199.014323,86.5585935 199.011719,86.6132812 C199.009115,86.667969 199.001302,86.7291663 198.988281,86.796875 C198.97526,86.8645837 198.949219,86.9153644 198.910156,86.9492188 C198.871094,86.9830731 198.817709,87 198.75,87 L196.25,87 C195.906248,87 195.61198,87.1223946 195.367188,87.3671875 C195.122395,87.6119804 195,87.9062483 195,88.25 L195,93.75 C195,94.0937517 195.122395,94.3880196 195.367188,94.6328125 C195.61198,94.8776054 195.906248,95 196.25,95 L198.5,95 L198.585938,95 L198.6875,95 C198.703125,95 198.733073,95.0026041 198.777344,95.0078125 C198.821615,95.0130209 198.851562,95.0208333 198.867188,95.03125 C198.882813,95.0416667 198.903646,95.0559895 198.929688,95.0742188 C198.955729,95.092448 198.973958,95.1158853 198.984375,95.1445312 C198.994792,95.1731772 199,95.2083331 199,95.25 L199,95.25 Z M206.25,91 C206.25,91.1354173 206.200521,91.2526037 206.101562,91.3515625 L201.851562,95.6015625 C201.752604,95.7005213 201.635417,95.75 201.5,95.75 C201.364583,95.75 201.247396,95.7005213 201.148438,95.6015625 C201.049479,95.5026037 201,95.3854173 201,95.25 L201,93 L197.5,93 C197.364583,93 197.247396,92.9505213 197.148438,92.8515625 C197.049479,92.7526037 197,92.6354173 197,92.5 L197,89.5 C197,89.3645827 197.049479,89.2473963 197.148438,89.1484375 C197.247396,89.0494787 197.364583,89 197.5,89 L201,89 L201,86.75 C201,86.6145827 201.049479,86.4973963 201.148438,86.3984375 C201.247396,86.2994787 201.364583,86.25 201.5,86.25 C201.635417,86.25 201.752604,86.2994787 201.851562,86.3984375 L206.101562,90.6484375 C206.200521,90.7473963 206.25,90.8645827 206.25,91 L206.25,91 Z"></path>
        </g>
    </g>
</svg>
