<svg width="14px" height="10px" version="1.1" xmlns="http://www.w3.org/2000/svg">
    <g stroke="none" stroke-width="1" fill="none" fill-rule="evenodd">
        <g transform="translate(-108.000000, -86.000000)" fill="#455A64">
            <path d="M117.090909,91.2272727 C117.090909,91.1609845 117.069602,91.1065343 117.026989,91.0639205 L114.526989,88.5639205 C114.484375,88.5213066 114.429925,88.5 114.363636,88.5 C114.297348,88.5 114.242898,88.5213066 114.200284,88.5639205 L111.707386,91.0568182 C111.660038,91.1136366 111.636364,91.1704543 111.636364,91.2272727 C111.636364,91.2935609 111.65767,91.3480112 111.700284,91.390625 C111.742898,91.4332388 111.797348,91.4545455 111.863636,91.4545455 L113.454545,91.4545455 L113.454545,93.9545455 C113.454545,94.0160988 113.477036,94.0693653 113.522017,94.1143466 C113.566998,94.1593279 113.620265,94.1818182 113.681818,94.1818182 L115.045455,94.1818182 C115.107008,94.1818182 115.160274,94.1593279 115.205256,94.1143466 C115.250237,94.0693653 115.272727,94.0160988 115.272727,93.9545455 L115.272727,91.4545455 L116.863636,91.4545455 C116.92519,91.4545455 116.978456,91.4320551 117.023438,91.3870739 C117.068419,91.3420926 117.090909,91.2888261 117.090909,91.2272727 L117.090909,91.2272727 Z M121.636364,93.2727273 C121.636364,94.0255719 121.370031,94.6683212 120.837358,95.2009943 C120.304685,95.7336674 119.661936,96 118.909091,96 L111.181818,96 C110.305867,96 109.556585,95.6886868 108.933949,95.0660511 C108.311313,94.4434154 108,93.6941332 108,92.8181818 C108,92.2026484 108.165718,91.6344723 108.497159,91.1136364 C108.8286,90.5928004 109.273671,90.2021793 109.832386,89.9417614 C109.822917,89.7997152 109.818182,89.697917 109.818182,89.6363636 C109.818182,88.6325707 110.173292,87.7755717 110.883523,87.0653409 C111.593754,86.3551101 112.450753,86 113.454545,86 C114.193186,86 114.869078,86.2059638 115.482244,86.6178977 C116.09541,87.0298316 116.541665,87.5767011 116.821023,88.2585227 C117.157199,87.9649607 117.550187,87.8181818 118,87.8181818 C118.501896,87.8181818 118.930396,87.9957369 119.285511,88.3508523 C119.640627,88.7059677 119.818182,89.1344672 119.818182,89.6363636 C119.818182,89.9962139 119.721118,90.3229152 119.526989,90.6164773 C120.142522,90.7632583 120.647962,91.0840411 121.043324,91.5788352 C121.438686,92.0736294 121.636364,92.6382544 121.636364,93.2727273 L121.636364,93.2727273 Z"></path>
        </g>
    </g>
</svg>
